:version 1.10
:name ASF
:units
  mass 1
  length 1
  angle deg
:documentation
  ASF file generated by Kaydara
:root
  axis xyz
  order  tx ty tz rx ry rz
  position 0 0 0
  orientation 0 0 0
:bonedata
  begin
    id 1
    name RightUpLegDummy
    direction -0.65628 -0.754516 0.00165102
    length 4.76918
    axis 0 0 0 xyz
  end
  begin
    id 2
    name RightUpLeg
    direction -0.145584 -0.923362 0.355256
    length 17.9961
    axis -24.7611 -13.1006 1.78531 xyz
    dof rx ry rz
  end
  begin
    id 3
    name RightLeg
    direction 0.263379 0.172355 -0.949171
    length 13.3386
    axis 89.6202 -21.1929 12.3855 xyz
    dof rx ry rz
  end
  begin
    id 4
    name RightFoot
    direction 0.224283 -0.968777 -0.105675
    length 5.86697
    axis 56.995 -39.6905 17.3365 xyz
    dof rx ry rz
  end
  begin
    id 5
    name RightToes
    direction -0.0806345 -0.9037 0.420506
    length 4.75197
    axis 146.825 -39.7828 17.6019 xyz
    dof rx ry rz
  end
  begin
    id 6
    name SpineDummy
    direction -3.39852e-014 1 9.33296e-014
    length 8.13779
    axis 0 0 0 xyz
  end
  begin
    id 7
    name Spine
    direction -0.156609 0.733703 0.661176
    length 7.14978
    axis 41.2365 5.68757 17.0844 xyz
    dof rx ry rz
  end
  begin
    id 8
    name Spine1
    direction 0 0 0
    length 0
    axis 42.8809 47.8308 -3.36039 xyz
    dof rx ry rz
  end
  begin
    id 9
    name HEadDummy
    direction 0.546431 0.701947 0.456819
    length 3.55512
    axis 42.8809 47.8308 -3.36039 xyz
  end
  begin
    id 10
    name HEad
    direction 0.23444 0.828559 0.508457
    length 7.35827
    axis 51.1864 49.2662 27.4903 xyz
    dof rx ry rz
  end
  begin
    id 11
    name LeftShoulder1Dummy
    direction 0.431183 0.475873 -0.766568
    length 2.49352
    axis 42.8809 47.8308 -3.36039 xyz
  end
  begin
    id 12
    name LeftShoulder1
    direction 0.268187 -0.383402 -0.883786
    length 4.48604
    axis -119.517 0.106469 35.1736 xyz
    dof rx ry rz
  end
  begin
    id 13
    name LeftArm
    direction 0.380567 -0.703221 -0.600541
    length 10.1142
    axis -5.41825 36.2925 7.8293 xyz
    dof rx ry rz
  end
  begin
    id 14
    name LeftForeArm
    direction 0.541071 -0.732356 -0.413396
    length 9.39839
    axis 4.65387 33.7604 7.81644 xyz
    dof rx ry rz
  end
  begin
    id 15
    name LeftHand
    direction 0.847511 -0.389379 -0.360707
    length 3.66142
    axis 7.65593 21.1436 -24.6758 xyz
    dof rx ry rz
  end
  begin
    id 16
    name RightShoulderDummy
    direction -0.692546 0.541855 0.476208
    length 2.49352
    axis 42.8809 47.8308 -3.36039 xyz
  end
  begin
    id 17
    name RightShoulder
    direction -0.870808 -0.316653 0.376065
    length 4.48602
    axis 141.571 51.133 -100.254 xyz
    dof rx ry rz
  end
  begin
    id 18
    name RightArm
    direction 0.366897 -0.87275 0.322015
    length 10.1142
    axis 92.3258 71.2036 138.917 xyz
    dof rx ry rz
  end
  begin
    id 19
    name RightForeArm
    direction 0.702487 -0.694568 0.155197
    length 9.39835
    axis 153.863 41.5092 -176.604 xyz
    dof rx ry rz
  end
  begin
    id 20
    name RightHand
    direction 0.79502 -0.601276 0.0800636
    length 3.66142
    axis 154.247 4.59222 142.9 xyz
    dof rx ry rz
  end
  begin
    id 21
    name LeftUpLegDummy
    direction 0.65628 -0.754516 0.00165102
    length 4.76919
    axis 0 0 0 xyz
  end
  begin
    id 22
    name LeftUpLeg
    direction -0.1277 -0.689368 0.713067
    length 17.9961
    axis -48.3385 -17.8675 0.791927 xyz
    dof rx ry rz
  end
  begin
    id 23
    name LeftLeg
    direction 0.109849 -0.991246 -0.0732378
    length 13.3386
    axis -2.05791 -7.30784 1.72042 xyz
    dof rx ry rz
  end
  begin
    id 24
    name LeftFoot
    direction 0.0448355 -0.272614 0.961078
    length 5.86697
    axis -18.7733 -7.89606 10.2113 xyz
    dof rx ry rz
  end
  begin
    id 25
    name LeftToes
    direction -0.18506 0.293668 0.937823
    length 4.75197
    axis 71.2267 -7.89606 10.2113 xyz
    dof rx ry rz
  end
:hierarchy
  begin
    root RightUpLegDummy SpineDummy LeftUpLegDummy
    RightUpLegDummy RightUpLeg
    RightUpLeg RightLeg
    RightLeg RightFoot
    RightFoot RightToes
    SpineDummy Spine
    Spine Spine1
    Spine1 HEadDummy LeftShoulder1Dummy RightShoulderDummy
    HEadDummy HEad
    LeftShoulder1Dummy LeftShoulder1
    LeftShoulder1 LeftArm
    LeftArm LeftForeArm
    LeftForeArm LeftHand
    RightShoulderDummy RightShoulder
    RightShoulder RightArm
    RightArm RightForeArm
    RightForeArm RightHand
    LeftUpLegDummy LeftUpLeg
    LeftUpLeg LeftLeg
    LeftLeg LeftFoot
    LeftFoot LeftToes
  end

:SAMPLES-PER-SECOND 30
:FULLY-SPECIFIED
:DEGREES
205
root  -8.97529 34.4457 1.58694 173.381 -10.2426 171.031
RightUpLeg  6.50168 16.6111 16.9219
RightLeg  -59.0675 -30.5114 17.1886
RightFoot  -0.69275 10.2169 -24.0856
RightToes  -1.27222e-014 -6.36111e-015 6.36111e-015
Spine  -15.1794 -38.5978 -30.5746
Spine1  -8.57533 -22.6959 89.2908
HEad  -4.15736 -1.55505 -20.4576
LeftShoulder1  6.36111e-015 -1.33558e-015 6.49777e-015
LeftArm  15.3691 -49.2665 -53.515
LeftForeArm  -18.6005 -51.1826 15.9395
LeftHand  -0.595902 -0.881122 -3.3534
RightShoulder  -4.77083e-015 -6.36111e-015 -3.18055e-015
RightArm  80.2724 -24.5046 -48.7282
RightForeArm  -14.9785 -10.1829 -7.99745
RightHand  -0.542529 3.80163 -1.19738
LeftUpLeg  14.0377 5.16384 14.0524
LeftLeg  0.0966924 -10.6922 -1.4668
LeftFoot  7.1898 5.01549 -13.7141
LeftToes  1.27222e-014 1.09105e-011 6.96064e-012
206
root  -9.37726 34.6663 1.50134 173.136 -3.38478 168.415
RightUpLeg  7.34303 22.2765 16.5565
RightLeg  -56.848 -29.049 14.5124
RightFoot  -0.261005 10.228 -24.1181
RightToes  -1.27222e-014 -6.36111e-015 6.36111e-015
Spine  -16.2368 -37.4774 -30.1187
Spine1  -6.1889 -22.815 83.5704
HEad  -6.08921 -0.297216 -20.6434
LeftShoulder1  6.36111e-015 -1.33558e-015 6.49777e-015
LeftArm  20.3604 -42.3054 -53.9347
LeftForeArm  -9.98621 -43.1366 7.11907
LeftHand  -0.545778 -0.315337 -5.27119
RightShoulder  -4.77083e-015 -6.36111e-015 -3.18055e-015
RightArm  69.3346 -24.8578 -40.3659
RightForeArm  -16.2548 -6.89663 -9.62296
RightHand  -0.668782 4.56197 -1.36875
LeftUpLeg  13.044 7.60412 11.9006
LeftLeg  -7.32564 -9.65427 -1.0314
LeftFoot  12.4293 5.49359 -13.1771
LeftToes  1.27222e-014 1.09105e-011 6.96064e-012
207
root  -9.97247 35.1236 1.31941 172.318 5.2865 165.269
RightUpLeg  6.64991 27.6827 15.1873
RightLeg  -54.2766 -28.2771 12.4759
RightFoot  4.16333 9.99672 -23.6579
RightToes  -1.27222e-014 -6.36111e-015 6.36111e-015
Spine  -18.4684 -34.7224 -26.6958
Spine1  -4.3935 -22.2743 72.1263
HEad  -5.3726 0.403195 -20.937
LeftShoulder1  6.36111e-015 -1.33558e-015 6.49777e-015
LeftArm  28.0675 -34.7529 -55.334
LeftForeArm  -5.69332 -32.1177 1.69131
LeftHand  -0.786227 -0.389907 -8.04214
RightShoulder  -4.77083e-015 -6.36111e-015 -3.18055e-015
RightArm  58.592 -25.8647 -30.0614
RightForeArm  -17.9155 -3.10567 -11.7931
RightHand  -0.889558 5.55256 -0.936184
LeftUpLeg  12.0821 14.5173 10.961
LeftLeg  -8.84121 -12.0331 -0.868537
LeftFoot  14.7767 6.65152 -15.0714
LeftToes  1.27222e-014 1.09105e-011 6.96064e-012
208
root  -10.608 35.5548 1.06335 170.541 13.9168 162.563
RightUpLeg  2.40834 27.7808 12.3141
RightLeg  -52.7311 -31.2097 14.207
RightFoot  13.593 10.0217 -23.8748
RightToes  -1.27222e-014 -6.36111e-015 6.36111e-015
Spine  -19.8665 -30.333 -21.9843
Spine1  -2.31246 -20.7477 59.0363
HEad  -4.96386 0.209653 -22.1775
LeftShoulder1  6.36111e-015 -1.33558e-015 6.49777e-015
LeftArm  37.4099 -28.8201 -57.9541
LeftForeArm  -5.33435 -18.483 -1.17366
LeftHand  -0.883931 -0.18282 -10.1088
RightShoulder  -4.77083e-015 -6.36111e-015 -3.18055e-015
RightArm  48.0597 -23.9373 -18.5241
RightForeArm  -18.8833 1.4512 -14.4537
RightHand  -0.859027 5.60154 -1.43519
LeftUpLeg  11.4813 20.9796 10.0477
LeftLeg  -7.31123 -17.0465 -0.889836
LeftFoot  13.6429 8.95348 -20.7176
LeftToes  1.27222e-014 1.09105e-011 6.96064e-012
209
root  -11.1628 35.7138 0.722638 167.544 21.8179 159.948
RightUpLeg  -3.21112 22.0425 9.3765
RightLeg  -53.6235 -36.2546 18.7224
RightFoot  22.5664 9.33611 -22.9608
RightToes  -1.27222e-014 -6.36111e-015 6.36111e-015
Spine  -19.5086 -25.7507 -18.4374
Spine1  0.475984 -18.3088 47.1255
HEad  -5.78293 -0.852466 -23.5568
LeftShoulder1  6.36111e-015 -1.33558e-015 6.49777e-015
LeftArm  25.8143 -15.2979 -41.8975
LeftForeArm  10.0691 -21.4088 -14.01
LeftHand  -0.708321 0.686007 -11.0221
RightShoulder  -4.77083e-015 -6.36111e-015 -3.18055e-015
RightArm  38.6471 -18.1337 -8.71503
RightForeArm  -19.1138 5.27184 -16.7166
RightHand  -0.550457 4.70445 -3.02382
LeftUpLeg  11.1625 26.3114 8.66581
LeftLeg  -4.28864 -20.0531 -1.47515
LeftFoot  10.7589 10.2636 -25.3392
LeftToes  1.27222e-014 1.09105e-011 6.96064e-012
210
root  -11.6188 35.5074 0.25772 163.651 29.9352 157.334
RightUpLeg  -5.98029 13.4916 9.0301
RightLeg  -52.4328 -36.564 18.2017
RightFoot  22.1267 7.86193 -20.7234
RightToes  -1.27222e-014 -6.36111e-015 6.36111e-015
Spine  -17.8874 -20.9038 -15.6617
Spine1  2.16726 -14.8234 36.6734
HEad  -5.91351 -2.23366 -23.7942
LeftShoulder1  6.36111e-015 -1.33558e-015 6.49777e-015
LeftArm  20.0361 -1.29338 -26.9133
LeftForeArm  25.6921 -24.004 -23.5348
LeftHand  -0.588121 1.43682 -12.0234
RightShoulder  -4.77083e-015 -6.36111e-015 -3.18055e-015
RightArm  31.3783 -10.7374 -1.80793
RightForeArm  -19.4389 6.8677 -17.8096
RightHand  -0.208359 3.74594 -4.55214
LeftUpLeg  11.0594 30.991 8.0795
LeftLeg  -0.556181 -19.4426 -2.24981
LeftFoot  8.74473 9.95514 -25.847
LeftToes  1.27222e-014 1.09105e-011 6.96064e-012
211
root  -11.9808 34.9245 -0.324485 158.958 39.2145 154.052
RightUpLeg  -5.93014 5.26636 10.7636
RightLeg  -46.7723 -31.4431 11.403
RightFoot  19.3333 7.09887 -19.3027
RightToes  -1.27222e-014 -6.36111e-015 6.36111e-015
Spine  -15.7321 -15.5773 -13.2864
Spine1  2.59972 -10.4715 26.8039
HEad  -5.36482 -3.0539 -23.2199
LeftShoulder1  6.36111e-015 -1.33558e-015 6.49777e-015
LeftArm  26.2545 4.93585 -17.6286
LeftForeArm  26.5088 -22.89 -22.0937
LeftHand  -0.761457 1.23307 -13.3233
RightShoulder  -4.77083e-015 -6.36111e-015 -3.18055e-015
RightArm  25.6999 -3.12671 2.54178
RightForeArm  -19.6123 7.03362 -17.9839
RightHand  -0.065788 3.41466 -5.26071
LeftUpLeg  10.2707 32.7169 7.87512
LeftLeg  3.84775 -14.526 -2.3698
LeftFoot  7.67226 8.23877 -22.0867
LeftToes  1.27222e-014 1.09105e-011 6.96064e-012
212
root  -12.2571 33.9995 -1.01418 152.009 48.3983 148.155
RightUpLeg  -4.87636 -1.34222 11.3244
RightLeg  -41.8749 -30.0888 8.38939
RightFoot  20.0688 7.29204 -19.6784
RightToes  -1.27222e-014 -6.36111e-015 6.36111e-015
Spine  -13.8733 -10.592 -11.9247
Spine1  4.13492 -5.56407 17.3996
HEad  -6.52488 -2.89214 -23.3291
LeftShoulder1  6.36111e-015 -1.33558e-015 6.49777e-015
LeftArm  35.5359 6.34734 -9.53628
LeftForeArm  20.5386 -20.6556 -17.5474
LeftHand  -1.02248 0.423375 -13.9117
RightShoulder  -4.77083e-015 -6.36111e-015 -3.18055e-015
RightArm  20.2682 4.65449 3.84297
RightForeArm  -19.054 6.46354 -17.4048
RightHand  -0.046635 3.44173 -5.51194
LeftUpLeg  8.47611 31.3093 6.50862
LeftLeg  9.75368 -5.43777 -0.555549
LeftFoot  4.8501 5.8743 -17.0724
LeftToes  1.27222e-014 1.09105e-011 6.96064e-012
213
root  -12.4308 32.9173 -1.73543 142.853 54.4203 139.923
RightUpLeg  -3.55401 -7.01428 8.51248
RightLeg  -39.9244 -36.1416 10.9836
RightFoot  19.2934 7.24675 -19.5329
RightToes  -1.27222e-014 -6.36111e-015 6.36111e-015
Spine  -12.8627 -6.50177 -10.8934
Spine1  7.01497 -0.866428 9.84378
HEad  -9.18136 -2.29098 -24.4064
LeftShoulder1  6.36111e-015 -1.33558e-015 6.49777e-015
LeftArm  42.1692 5.05742 -2.27242
LeftForeArm  16.5728 -19.1924 -15.061
LeftHand  -1.10749 0.0208718 -13.6764
RightShoulder  -4.77083e-015 -6.36111e-015 -3.18055e-015
RightArm  14.7726 11.103 2.29818
RightForeArm  -17.8123 4.23448 -15.6162
RightHand  0.0160843 3.37776 -5.99111
LeftUpLeg  6.93124 29.7726 4.14139
LeftLeg  16.4686 3.26269 3.36357
LeftFoot  -0.321895 4.8654 -16.4827
LeftToes  1.27222e-014 1.09105e-011 6.96064e-012
214
root  -12.4788 32.1539 -2.21555 137.022 55.9183 134.851
RightUpLeg  -1.95811 -12.2034 3.10667
RightLeg  -37.8293 -37.9551 10.8504
RightFoot  15.607 5.90125 -16.8702
RightToes  -1.27222e-014 -6.36111e-015 6.36111e-015
Spine  -12.6607 -3.67491 -9.65377
Spine1  8.69104 2.08692 5.76214
HEad  -9.88293 -2.05944 -24.9528
LeftShoulder1  6.36111e-015 -1.33558e-015 6.49777e-015
LeftArm  44.345 3.786 4.59646
LeftForeArm  18.1767 -22.5012 -15.0522
LeftHand  -1.01226 0.374444 -13.6335
RightShoulder  -4.77083e-015 -6.36111e-015 -3.18055e-015
RightArm  11.3239 14.2357 0.37062
RightForeArm  -16.3729 0.300225 -13.0147
RightHand  0.0697909 3.27596 -6.28927
LeftUpLeg  5.9825 29.1644 1.77875
LeftLeg  21.0468 6.64047 6.07834
LeftFoot  -4.48347 5.06507 -19.692
LeftToes  1.27222e-014 1.09105e-011 6.96064e-012
215
root  -12.4285 32.0391 -2.23646 138.388 54.699 136.556
RightUpLeg  0.129921 -15.9481 -1.57291
RightLeg  -34.003 -29.5892 5.23309
RightFoot  12.192 3.60509 -12.1801
RightToes  -1.27222e-014 -6.36111e-015 6.36111e-015
Spine  -13.2371 -1.89049 -8.38193
Spine1  7.46825 2.6964 5.65344
HEad  -7.45901 -2.43785 -24.0501
LeftShoulder1  6.36111e-015 -1.33558e-015 6.49777e-015
LeftArm  45.3721 3.85911 8.17223
LeftForeArm  18.9105 -28.5881 -13.6331
LeftHand  -1.01636 0.516073 -14.1247
RightShoulder  -4.77083e-015 -6.36111e-015 -3.18055e-015
RightArm  12.6563 14.2199 0.510656
RightForeArm  -15.3396 -3.03924 -11.0945
RightHand  -0.074709 3.41615 -5.17511
LeftUpLeg  5.55372 28.3414 0.664956
LeftLeg  21.585 6.30987 6.03572
LeftFoot  -5.00799 5.17745 -20.5027
LeftToes  1.27222e-014 1.09105e-011 6.96064e-012
216
root  -12.4048 32.5134 -1.81019 143.86 52.114 141.928
RightUpLeg  2.07752 -16.0426 -3.27097
RightLeg  -33.1456 -20.7193 0.771123
RightFoot  9.65781 1.95103 -8.40443
RightToes  -1.27222e-014 -6.36111e-015 6.36111e-015
Spine  -14.1849 -1.18433 -7.84603
Spine1  4.66605 1.85352 8.21667
HEad  -4.68814 -3.2189 -22.7302
LeftShoulder1  6.36111e-015 -1.33558e-015 6.49777e-015
LeftArm  48.5073 4.01409 3.76859
LeftForeArm  11.2661 -30.2237 -6.96667
LeftHand  -1.27338 -0.44411 -14.2848
RightShoulder  -4.77083e-015 -6.36111e-015 -3.18055e-015
RightArm  18.3071 12.0153 2.77391
RightForeArm  -14.8254 -3.76971 -10.6172
RightHand  -0.4503 4.01714 -2.6083
LeftUpLeg  5.70975 27.224 0.782481
LeftLeg  18.4317 4.95328 4.53634
LeftFoot  -1.45916 4.65255 -16.3465
LeftToes  1.27222e-014 1.09105e-011 6.96064e-012
217
root  -12.4975 33.4537 -0.990006 149.983 47.8205 147.335
RightUpLeg  2.96456 -12.8237 -2.39176
RightLeg  -36.4872 -22.1052 2.08381
RightFoot  7.99635 2.31353 -8.52553
RightToes  -1.27222e-014 -6.36111e-015 6.36111e-015
Spine  -15.3021 -1.83129 -8.15223
Spine1  2.72039 0.42958 11.367
HEad  -3.34596 -4.29151 -22.1535
LeftShoulder1  6.36111e-015 -1.33558e-015 6.49777e-015
LeftArm  49.4262 3.44003 -4.9456
LeftForeArm  3.22318 -28.6078 -1.79314
LeftHand  -1.59428 -1.8152 -13.8351
RightShoulder  -4.77083e-015 -6.36111e-015 -3.18055e-015
RightArm  25.1054 7.46662 5.45225
RightForeArm  -14.3448 -3.04458 -10.7962
RightHand  -0.841882 4.94908 -0.188756
LeftUpLeg  6.72201 26.7034 1.48326
LeftLeg  11.3706 -0.416627 1.13714
LeftFoot  5.42366 4.99343 -14.3113
LeftToes  1.27222e-014 1.09105e-011 6.96064e-012
218
root  -12.6169 34.6119 0.112928 156.267 41.4637 152.189
RightUpLeg  3.09215 -8.44633 -0.407193
RightLeg  -43.5029 -29.5963 8.72422
RightFoot  8.95902 4.1522 -12.3628
RightToes  -1.27222e-014 -6.36111e-015 6.36111e-015
Spine  -17.1038 -3.23884 -8.09462
Spine1  1.97914 -1.49158 14.0876
HEad  -1.98375 -6.31734 -22.0676
LeftShoulder1  6.36111e-015 -1.33558e-015 6.49777e-015
LeftArm  46.4262 1.01433 -14.8878
LeftForeArm  0.215889 -28.5668 -0.702213
LeftHand  -1.74235 -2.47939 -13.4057
RightShoulder  -4.77083e-015 -6.36111e-015 -3.18055e-015
RightArm  31.256 0.265637 7.08889
RightForeArm  -13.8687 -3.5418 -10.4362
RightHand  -1.00585 5.39016 0.871369
LeftUpLeg  8.91783 28.0957 3.87966
LeftLeg  0.917207 -12.8819 -1.7728
LeftFoot  13.445 9.72056 -22.555
LeftToes  1.27222e-014 1.09105e-011 6.96064e-012
